<?xml version="1.0" encoding="iso-8859-1"?>
<!-- Generator: Adobe Illustrator 19.0.0, SVG Export Plug-In . SVG Version: 6.00 Build 0)  -->
<svg version="1.1" id="Capa_1" xmlns="http://www.w3.org/2000/svg" xmlns:xlink="http://www.w3.org/1999/xlink" x="0px" y="0px"
	 viewBox="0 0 512 512" style="enable-background:new 0 0 512 512;" xml:space="preserve">
<path style="fill:#3B4A51;" d="M432.209,304.632C384.896,284.811,322.317,273.895,256,273.895s-128.896,10.917-176.209,30.738
	C28.337,326.189,0,356.458,0,389.862s28.337,63.673,79.791,85.23c47.313,19.822,109.892,30.738,176.209,30.738
	s128.896-10.917,176.209-30.738C483.663,453.536,512,423.267,512,389.862S483.663,326.189,432.209,304.632z"/>
<path style="fill:#6099B1;" d="M256,273.895c-66.317,0-128.896,10.917-176.209,30.738C28.337,326.189,0,356.458,0,389.862
	s28.337,63.673,79.791,85.23c47.313,19.822,109.892,30.738,176.209,30.738V273.895z"/>
<path style="fill:#C2132C;" d="M443.307,134.593l53.277-65.398c3.971-4.875,4.48-11.708,1.276-17.117
	c-3.203-5.409-9.439-8.249-15.623-7.109c-42.278,7.782-75.297-2.328-107.229-12.108c-35.819-10.972-72.789-22.285-116.397-3.913
	V208.9c1.727-0.186,3.451-0.66,5.097-1.483c36.536-18.268,65.652-9.35,102.514,1.941c25.201,7.719,52.905,16.207,85.949,16.206
	c11.184,0,22.985-0.974,35.5-3.278c5.251-0.967,9.592-4.652,11.398-9.677c1.807-5.024,0.807-10.63-2.627-14.719L443.307,134.593z"/>
<path style="fill:#FF3F5C;" d="M370.236,31.403c-34.339-10.458-69.95-20.013-111.625-2.456V208.9
	c1.727-0.186,3.451-0.66,5.097-1.483c36.536-18.268,65.652-9.35,102.514,1.941c1.33,0.407,2.67,0.817,4.014,1.227L370.236,31.403
	L370.236,31.403z"/>
<path style="fill:#A8D3D8;" d="M364.151,343.688c-29.099-8.883-67.508-13.776-108.151-13.776s-79.053,4.893-108.151,13.776
	c-44.305,13.525-53.604,32.495-53.604,46.027s9.3,32.501,53.604,46.026c29.099,8.883,67.508,13.776,108.151,13.776
	s79.053-4.893,108.151-13.776c44.305-13.525,53.604-32.495,53.604-46.026S408.456,357.214,364.151,343.688z"/>
<path style="fill:#F0F0F0;" d="M256,329.912c-40.644,0-79.053,4.893-108.151,13.776c-44.305,13.525-53.604,32.495-53.604,46.027
	s9.3,32.501,53.604,46.026c29.099,8.883,67.508,13.776,108.151,13.776V329.912z"/>
<ellipse style="fill:#C2132C;" cx="256" cy="389.71" rx="87.967" ry="19.214"/>
<path style="fill:#FF3F5C;" d="M256,370.5c-48.583,0-87.967,8.602-87.967,19.214s39.384,19.214,87.967,19.214V370.5z"/>
<path style="fill:#A8D3D8;" d="M271,389.862V21.169c0-8.284-6.716-15-15-15s-15,6.716-15,15v368.693H271z"/>
<g>
</g>
<g>
</g>
<g>
</g>
<g>
</g>
<g>
</g>
<g>
</g>
<g>
</g>
<g>
</g>
<g>
</g>
<g>
</g>
<g>
</g>
<g>
</g>
<g>
</g>
<g>
</g>
<g>
</g>
</svg>
