<?xml version="1.0" encoding="iso-8859-1"?>
<!-- Generator: Adobe Illustrator 19.0.0, SVG Export Plug-In . SVG Version: 6.00 Build 0)  -->
<svg version="1.1" id="Capa_1" xmlns="http://www.w3.org/2000/svg" xmlns:xlink="http://www.w3.org/1999/xlink" x="0px" y="0px"
	 viewBox="0 0 512 512" style="enable-background:new 0 0 512 512;" xml:space="preserve">
<path style="fill:#17ACE8;" d="M506.902,244.6l-210-180C287.3,56.199,272,63.101,272,76v75H15c-8.401,0-15,6.599-15,15v180
	c0,8.399,6.599,15,15,15h257v75c0,12.9,15.3,19.799,24.902,11.4l210-180c3.296-3.001,5.098-6.901,5.098-11.4
	C512,251.5,510.198,247.6,506.902,244.6z"/>
<path style="fill:#1689FC;" d="M512,256c0,4.499-1.802,8.399-5.098,11.4l-210,180C287.3,455.8,272,448.9,272,436v-75H15
	c-8.401,0-15-6.601-15-15v-90H512z"/>
<g>
</g>
<g>
</g>
<g>
</g>
<g>
</g>
<g>
</g>
<g>
</g>
<g>
</g>
<g>
</g>
<g>
</g>
<g>
</g>
<g>
</g>
<g>
</g>
<g>
</g>
<g>
</g>
<g>
</g>
</svg>
