<?xml version="1.0" encoding="UTF-8" standalone="no"?>
<!-- Generator: Adobe Illustrator 16.0.0, SVG Export Plug-In . SVG Version: 6.00 Build 0)  -->

<svg
   xmlns:dc="http://purl.org/dc/elements/1.1/"
   xmlns:cc="http://creativecommons.org/ns#"
   xmlns:rdf="http://www.w3.org/1999/02/22-rdf-syntax-ns#"
   xmlns:svg="http://www.w3.org/2000/svg"
   xmlns="http://www.w3.org/2000/svg"
   xmlns:sodipodi="http://sodipodi.sourceforge.net/DTD/sodipodi-0.dtd"
   xmlns:inkscape="http://www.inkscape.org/namespaces/inkscape"
   version="1.1"
   id="Capa_1"
   x="0px"
   y="0px"
   width="292.362px"
   height="292.361px"
   viewBox="0 0 292.362 292.361"
   style="enable-background:new 0 0 292.362 292.361;"
   xml:space="preserve"
   inkscape:version="0.91+devel+osxmenu r12922"
   sodipodi:docname="caret-arrow-up.svg"><metadata
     id="metadata49"><rdf:RDF><cc:Work
         rdf:about=""><dc:format>image/svg+xml</dc:format><dc:type
           rdf:resource="http://purl.org/dc/dcmitype/StillImage" /></cc:Work></rdf:RDF></metadata><defs
     id="defs47" /><sodipodi:namedview
     pagecolor="#ffffff"
     bordercolor="#666666"
     borderopacity="1"
     objecttolerance="10"
     gridtolerance="10"
     guidetolerance="10"
     inkscape:pageopacity="0"
     inkscape:pageshadow="2"
     inkscape:window-width="1440"
     inkscape:window-height="900"
     id="namedview45"
     showgrid="false"
     inkscape:zoom="1.3622282"
     inkscape:cx="146.181"
     inkscape:cy="146.1805"
     inkscape:window-x="0"
     inkscape:window-y="0"
     inkscape:window-maximized="0"
     inkscape:current-layer="Capa_1" /><g
     id="g11"
     style="fill:#2c5aa0"
     transform="rotate(90,146.181,146.1815)"><path
       d="M 286.935,197.287 159.028,69.381 c -3.613,-3.617 -7.895,-5.424 -12.847,-5.424 -4.952,0 -9.233,1.807 -12.85,5.424 L 5.424,197.287 C 1.807,200.904 0,205.186 0,210.134 c 0,4.948 1.807,9.233 5.424,12.847 3.621,3.617 7.902,5.425 12.85,5.425 l 255.813,0 c 4.949,0 9.233,-1.808 12.848,-5.425 3.613,-3.613 5.427,-7.898 5.427,-12.847 0,-4.949 -1.814,-9.23 -5.427,-12.847 z"
       id="path13"
       inkscape:connector-curvature="0"
       style="fill:#2c5aa0" /></g><g
     id="g15" /><g
     id="g17" /><g
     id="g19" /><g
     id="g21" /><g
     id="g23" /><g
     id="g25" /><g
     id="g27" /><g
     id="g29" /><g
     id="g31" /><g
     id="g33" /><g
     id="g35" /><g
     id="g37" /><g
     id="g39" /><g
     id="g41" /><g
     id="g43" /></svg>