<svg height="35pt" viewBox="-75 0 436 436.90685" width="35pt" xmlns="http://www.w3.org/2000/svg"><path d="m264.796875 110.367188c0-49.015626-54.167969-103.539063-120.984375-103.539063s-120.984375 54.523437-120.984375 103.539063c0 49.011718 54.167969 73.953124 120.984375 73.953124s120.984375-24.941406 120.984375-73.953124zm0 0" fill="#fff"/><g fill="#54596e"><path d="m264.796875 110.367188h6.828125c-.070312-27.0625-14.6875-54.414063-37.6875-75.21875-23.039062-20.785157-54.828125-35.1367192-90.125-35.148438-35.292969.0117188-67.082031 14.363281-90.121094 35.148438-23 20.804687-37.621094 48.15625-37.6875 75.21875-.019531 13.511718 3.796875 25.714843 10.644532 36.003906 10.285156 15.472656 26.96875 26.585937 47.203124 33.894531 20.269532 7.304687 44.265626 10.875 69.960938 10.878906 34.253906-.023437 65.507812-6.308593 88.902344-19.476562 11.683594-6.597657 21.421875-14.988281 28.261718-25.296875 6.847657-10.289063 10.664063-22.496094 10.644532-36.003906h-13.652344c-.015625 10.992187-2.972656 20.289062-8.367188 28.457031-8.078124 12.21875-22.078124 21.972656-40.460937 28.597656-18.347656 6.628906-40.910156 10.078125-65.328125 10.070313-32.5625.027343-61.800781-6.160157-82.191406-17.714844-10.210938-5.765625-18.1875-12.800782-23.59375-20.953125-5.394532-8.171875-8.351563-17.464844-8.371094-28.457031-.066406-21.953126 12.398438-46.371094 33.183594-65.082032 20.75-18.734375 49.453125-31.644531 80.972656-31.632812 31.523438-.011719 60.226562 12.898437 80.976562 31.628906 20.785157 18.714844 33.25 43.132812 33.179688 65.082031h6.828125zm0 0"/><path d="m232.558594 104.753906c0-30.421875-39.730469-64.265625-88.746094-64.265625-49.011719 0-88.746094 33.84375-88.746094 64.265625 0 30.417969 39.734375 45.90625 88.746094 45.90625 49.015625 0 88.746094-15.488281 88.746094-45.90625zm0 0"/><path d="m232.558594 104.753906h6.828125c-.003907-9.105468-2.957031-18.105468-7.953125-26.398437-7.523438-12.449219-19.675782-23.503907-34.789063-31.578125-15.117187-8.0625-33.265625-13.113282-52.832031-13.117188-26.09375.015625-49.636719 8.960938-66.894531 22.128906-8.632813 6.59375-15.710938 14.261719-20.722657 22.566407-5 8.292969-7.949218 17.292969-7.957031 26.398437-.027343 9.101563 3.085938 17.449219 8.429688 24.21875 8.042969 10.1875 20.550781 17.109375 35.53125 21.710938 15.015625 4.582031 32.691406 6.796875 51.613281 6.800781 25.230469-.023437 48.238281-3.90625 65.699219-12.210937 8.714843-4.171876 16.105469-9.503907 21.449219-16.300782 5.34375-6.769531 8.457031-15.117187 8.425781-24.21875h-13.652344c-.03125 6.105469-1.882813 11.101563-5.523437 15.792969-5.429688 7-15.425782 13.027344-28.773438 17.082031-13.3125 4.070313-29.785156 6.210938-47.625 6.207032-23.78125.023437-45.148438-3.839844-59.808594-10.882813-7.34375-3.5-12.949218-7.742187-16.589844-12.40625-3.636718-4.691406-5.488281-9.6875-5.519531-15.792969-.007812-6.101562 2.007813-12.746094 5.992188-19.351562 5.949219-9.90625 16.304687-19.550782 29.519531-26.578125 13.210938-7.046875 29.210938-11.515625 46.40625-11.511719 22.917969-.015625 43.746094 7.960938 58.609375 19.324219 7.429687 5.667969 13.34375 12.167969 17.316406 18.765625 3.984375 6.605468 6 13.25 5.992188 19.351562zm0 0"/></g><path d="m266.695312 266.105469c0-109.433594-55.019531-54.191407-122.882812-54.191407s-122.878906-55.242187-122.878906 54.191407c0 109.425781 55.015625 163.972656 122.878906 163.972656s122.882812-54.542969 122.882812-163.972656" fill="#fff"/><path d="m266.695312 266.105469h6.824219c-.054687-27.78125-3.292969-45.796875-10.546875-58.015625-3.632812-6.070313-8.492187-10.570313-14.085937-13.269532-5.585938-2.71875-11.667969-3.675781-17.867188-3.675781-12.535156.042969-26.050781 3.71875-40.734375 7.152344-14.65625 3.46875-30.355468 6.796875-46.472656 6.789063-16.113281.007812-31.8125-3.320313-46.46875-6.789063-14.683594-3.433594-28.203125-7.109375-40.734375-7.152344-6.203125 0-12.28125.957031-17.867187 3.679688-4.183594 2.027343-7.992188 5.054687-11.140626 9.011719-4.738281 5.960937-8.035156 13.820312-10.226562 23.957031-2.179688 10.152343-3.265625 22.675781-3.269531 38.316406 0 55.824219 14.03125 98.453125 37.523437 127.328125 23.457032 28.898438 56.429688 43.527344 92.183594 43.46875 35.753906.058594 68.726562-14.570312 92.183594-43.46875 23.492187-28.878906 37.523437-71.507812 37.523437-127.332031h-13.652343c0 53.601562-13.480469 92.957031-34.457032 118.710937-21.023437 25.734375-49.484375 38.378906-81.597656 38.4375-32.109375-.058594-60.574219-12.703125-81.59375-38.4375-20.980469-25.75-34.457031-65.109375-34.460938-118.710937-.054687-26.679688 3.519532-42.726563 8.59375-50.964844 2.527344-4.152344 5.207032-6.476563 8.371094-8.046875 3.167969-1.542969 7.058594-2.296875 11.886719-2.300781 9.726563-.042969 22.765625 3.253906 37.59375 6.792969 14.863281 3.5 31.632813 7.148437 49.609375 7.152343 17.980469-.003906 34.753906-3.652343 49.609375-7.152343 14.832031-3.535157 27.867187-6.835938 37.597656-6.792969 4.824219 0 8.71875.757812 11.886719 2.300781 2.386719 1.175781 4.460938 2.78125 6.445312 5.257812 2.957032 3.691407 5.664063 9.519532 7.554688 18.316407 1.894531 8.785156 2.964844 20.445312 2.960938 35.4375z" fill="#54596e"/><path d="m27.757812 265.414062v.695313c.003907 53.597656 13.480469 92.957031 34.460938 118.710937 21.019531 25.730469 49.484375 38.375 81.59375 38.433594 32.113281-.058594 60.574219-12.703125 81.597656-38.4375 20.976563-25.75 34.457032-65.109375 34.457032-118.710937h6.828124-6.828124c0-.230469 0-.457031 0-.6875-16.605469 68.804687-62.238282 103.222656-116.054688 103.222656s-99.453125-34.421875-116.054688-103.226563" fill="#eeeef0"/><path d="m22.78125 236.640625c-1.191406 8.171875-1.847656 17.839844-1.847656 29.464844 0 109.425781 55.015625 163.972656 122.878906 163.972656 67.867188 0 122.882812-54.546875 122.882812-163.972656h-6.828124c0 53.601562-13.480469 92.957031-34.457032 118.710937-21.023437 25.734375-49.484375 38.378906-81.597656 38.4375-32.109375-.058594-60.574219-12.703125-81.59375-38.4375-20.980469-25.75-34.457031-65.109375-34.460938-118.710937 0-.230469 0-.460938 0-.691407-2.171874-9.003906-3.847656-18.59375-4.976562-28.773437m242.066406 0c-1.132812 10.183594-2.808594 19.773437-4.980468 28.777344v.6875h6.828124c0-11.625-.65625-21.292969-1.847656-29.464844" fill="#54596e"/><path d="m109.679688 259.414062c0 7.539063-6.113282 13.652344-13.652344 13.652344-7.542969 0-13.652344-6.113281-13.652344-13.652344 0-7.542968 6.109375-13.652343 13.652344-13.652343 7.539062 0 13.652344 6.109375 13.652344 13.652343zm0 0" fill="#f99"/><path d="m48.238281 266.238281c0-52.785156-9.167969-68.265625-20.476562-68.265625-11.3125 0-20.480469-5-20.480469 47.789063 0 52.785156 9.167969 143.359375 20.480469 143.359375 11.308593 0 20.476562-70.09375 20.476562-122.882813zm0 0" fill="#fff"/><path d="m48.238281 266.238281h6.828125c-.027344-26.804687-2.246094-44.390625-6.390625-56.207031-2.097656-5.898438-4.722656-10.472656-8.296875-13.816406-3.535156-3.363282-8.226562-5.125-12.617187-5.066406-1.484375 0-3.203125-.125-5.214844-.128907-2.601563.007813-5.984375.214844-9.40625 2.101563-2.550781 1.398437-4.761719 3.679687-6.347656 6.4375-2.394531 4.167968-3.8125 9.371094-4.832031 16.695312-.992188 7.328125-1.503907 16.832032-1.507813 29.507813.003906 26.773437 2.308594 62.75 6.054687 92.332031 1.878907 14.804688 4.101563 27.957031 6.679688 37.785156 1.308594 4.9375 2.65625 9.015625 4.378906 12.382813.886719 1.6875 1.84375 3.230469 3.316406 4.699219.742188.726562 1.636719 1.441406 2.792969 2.015624 1.140625.574219 2.582031.976563 4.085938.96875 2.515625.011719 4.730469-1.027343 6.238281-2.203124 2.847656-2.269532 4.316406-4.929688 5.808594-8.046876 2.492187-5.449218 4.496094-12.628906 6.335937-21.320312 5.445313-25.972656 8.90625-65.160156 8.921875-98.136719h-13.652344c.003907 26-2.277343 56.511719-5.921874 80.199219-1.808594 11.828125-3.992188 21.996094-6.242188 28.757812-1.101562 3.367188-2.273438 5.882813-3.0625 7.050782l-.445312.597656-.078126.082031-.007812.007813 2.101562 2.394531v-3.035156c-1.292968-.003907-2.097656.621093-2.101562.640625l2.101562 2.394531v-3.035156 4.4375l1.976563-3.988281c-.445313-.226563-1.183594-.453126-1.976563-.449219v4.4375l1.976563-3.988281-1.222656 2.464843 1.929687-1.992187-.703125-.472656-1.222656 2.464843 1.929687-1.992187-.011718.011718.011718-.011718h-.003906l-.011718.011718.015624-.011718c-.269531-.238282-1.4375-2.3125-2.445312-5.375-1.855469-5.414063-3.761719-13.949219-5.445312-24.128906-5.085938-30.613282-8.457032-76.417969-8.449219-107.949219 0-10.929688.402343-19.25 1.105469-25.441407.527343-4.644531 1.226562-8.082031 1.960937-10.464843.554687-1.789063 1.121094-2.96875 1.566406-3.667969.707031-1.046875.894531-1.042969 1.203125-1.207031.3125-.144531 1.117188-.316407 2.605469-.308594 1.316406-.003906 3.089844.125 5.210937.128906 1.261719.058594 1.957032.230469 3.324219 1.421875 2.011719 1.761719 4.960938 6.863282 6.976563 16.632813 2.066406 9.734375 3.355468 23.894531 3.351562 43.386719h6.828125zm0 0" fill="#54596e"/><path d="m239.386719 266.238281c0-52.785156 9.171875-68.265625 20.480469-68.265625 11.308593 0 20.480468-5 20.480468 47.789063 0 52.785156-9.171875 143.359375-20.480468 143.359375-11.308594 0-20.480469-70.09375-20.480469-122.882813zm0 0" fill="#fff"/><path d="m239.386719 266.238281h6.828125c-.027344-25.980469 2.335937-42.527343 5.605468-51.648437 1.605469-4.570313 3.394532-7.164063 4.722657-8.371094 1.367187-1.191406 2.0625-1.359375 3.324219-1.421875 2.121093-.003906 3.894531-.132813 5.210937-.125 1.792969-.007813 2.515625.222656 2.777344.382813.214843.140624.53125.300781 1.183593 1.382812.960938 1.589844 2.25 5.28125 3.097657 11.65625.871093 6.371094 1.386719 15.371094 1.382812 27.664062.003907 26.011719-2.277343 61.71875-5.945312 90.617188-1.828125 14.4375-4.019531 27.226562-6.339844 36.03125-1.140625 4.378906-2.367187 7.789062-3.308594 9.582031l-.578125.992188-.1875.253906 1.609375 1.457031-1.042969-1.867187-.566406.410156 1.609375 1.457031-1.042969-1.867187 2.140626 3.839843v-4.371093c-.898438-.007813-1.707032.285156-2.136719.53125l2.136719 3.839843v-4.371093 3.285156l2.050781-2.683594c-.132813-.121093-.945313-.609375-2.050781-.601562v3.285156l2.050781-2.683594-.386719.507813.4375-.464844-.050781-.042969-.386719.507813.4375-.464844c-.089844-.019531-1.128906-1.398438-2.078125-3.6875-1.746094-4.023438-3.632813-10.695312-5.289063-18.84375-5.035156-24.539062-8.402343-62.6875-8.390624-94.167969h-13.652344c.007812 26.789063 2.3125 57.714844 6.078125 82.273438 1.898437 12.292969 4.125 22.945312 6.777343 30.976562 1.351563 4.03125 2.75 7.402344 4.628907 10.273438.957031 1.4375 2.039062 2.785156 3.585937 3.980469 1.507813 1.175781 3.71875 2.210937 6.238282 2.203124 1.5.003907 2.941406-.398437 4.085937-.972656 2.234375-1.144531 3.503906-2.65625 4.566406-4.136718 1.925781-2.808594 3.203125-6.027344 4.488281-9.988282 2.1875-6.886718 4.082032-15.949218 5.792969-26.523437 5.105469-31.667969 8.363281-76.644531 8.371094-108.566407 0-11.261718-.40625-20.027343-1.191406-26.976562-.59375-5.21875-1.394531-9.421875-2.480469-12.957031-.820312-2.648438-1.808594-4.9375-3.078125-6.945313-1.863281-3.011718-4.613281-5.359375-7.523437-6.523437-2.90625-1.183594-5.601563-1.328125-7.816407-1.335938-2.011719.003907-3.734375.128907-5.214843.128907-4.390626-.058594-9.082032 1.703124-12.617188 5.066406-5.335938 5.066406-8.640625 12.679687-11.042969 23.816406-2.351562 11.175781-3.640625 26.109375-3.644531 46.207031zm0 0" fill="#54596e"/><path d="m200.96875 92c-3.828125-8.484375-17.246094-10.703125-29.972656-4.960938-12.722656 5.746094-19.933594 17.277344-16.105469 25.757813 3.828125 8.484375 17.25 10.703125 29.972656 4.960937 12.722657-5.746093 19.9375-17.277343 16.105469-25.757812zm0 0" fill="#55a6ff"/><path d="m116.601562 87.050781c-12.722656-5.746093-26.140624-3.523437-29.972656 4.957031-3.828125 8.484376 3.382813 20.015626 16.109375 25.757813 12.722657 5.746094 26.140625 3.523437 29.972657-4.957031 3.828124-8.484375-3.382813-20.015625-16.109376-25.757813zm0 0" fill="#55a6ff"/></svg>
